<svg width="101" height="24" viewBox="0 0 101 24" fill="none" xmlns="http://www.w3.org/2000/svg">
<path d="M34.8983 22.6082L30.5123 15.0805C30.4118 15.0805 30.3489 15.0805 30.261 15.0805H26.9182V22.6082H22.5448V0.552951H30.261C35.6774 0.552951 38.9197 3.48109 38.9197 7.91726C38.9197 10.9459 37.4368 13.1452 34.76 14.2511L39.7994 22.5956H34.8983V22.6082ZM26.9308 11.1721H30.8391C33.2645 11.1721 34.3955 9.60125 34.3955 7.92983C34.3955 6.19557 33.2268 4.64982 30.8391 4.64982H26.9308V11.1721ZM41.8102 22.6082V0.552951H46.1835V22.5956H41.8102V22.6082ZM66.4667 20.3084C65.2729 21.6657 62.6589 23.0481 59.7937 23.0481C53.4598 23.0481 48.3576 18.2348 48.3576 11.5868C48.3576 4.93886 53.4598 0.125671 59.7937 0.125671C64.1669 0.163372 67.824 2.42545 69.8096 5.9568L65.3358 7.12553C64.1418 5.49181 61.9678 4.44875 59.7937 4.44875C55.6716 4.44875 52.932 7.41458 52.932 11.5994C52.932 15.9728 55.9607 18.7752 60.045 18.7752C63.8277 18.7752 65.8133 16.7017 66.5045 14.9925V14.05H60.3968V10.481H70.2494V22.6082H66.4667C66.4667 20.7859 66.5045 20.3461 66.5045 20.3084H66.4667ZM73.3284 22.6082V0.552951H77.7017V22.5956H73.3284V22.6082ZM100.285 0.552951V22.5956H96.1624L89.8918 14.0877C87.9062 11.3732 85.4808 7.91726 85.4556 7.91726H85.4179C85.3927 7.91726 85.4556 11.0967 85.4556 15.4701V22.583H81.0822V0.552951H85.2043L91.6009 9.14884C93.1089 11.1345 95.8863 15.068 95.9114 15.068H95.9491C95.9868 15.068 95.9114 11.4737 95.9114 7.76646V0.552951H100.285ZM19.4156 5.68032L15.8466 9.24937C15.9848 9.95309 16.0602 10.7323 16.0602 11.5742C16.0602 16.0859 13.9364 18.7878 10.3799 18.7878C8.89696 18.7878 7.65281 18.3103 6.71028 17.4054L19.0763 5.0394C18.7495 4.44875 18.3725 3.90836 17.9452 3.40568C17.7693 3.19204 17.5808 3.00353 17.3923 2.80246C17.3671 2.77733 17.3421 2.7522 17.3169 2.72705C17.254 2.67679 17.2038 2.61396 17.141 2.56368C15.3313 0.879696 13.0315 0 10.3799 0C7.32608 0 4.71212 1.16874 2.83962 3.39311C1.06766 5.49181 0.100002 8.39481 0.100002 11.5742C0.100002 13.6856 0.527283 15.6711 1.33158 17.3803L4.92576 13.7861C4.80009 13.1075 4.73725 12.366 4.73725 11.5618C4.73725 9.48815 5.16454 7.80416 5.99396 6.56002C6.9742 5.1148 8.49481 4.34821 10.3799 4.34821C11.8502 4.34821 13.0818 4.81319 14.0117 5.68032L1.67089 18.0212C2.0102 18.637 2.39978 19.2151 2.83962 19.7303C2.9276 19.8308 3.01556 19.9314 3.1161 20.0319C3.21664 20.145 3.32974 20.2581 3.44285 20.3712C3.45541 20.3838 3.46798 20.3964 3.48055 20.4089C3.51825 20.4467 3.54338 20.4844 3.58109 20.5094C5.37818 22.2186 7.70309 23.1234 10.3799 23.1234C13.4462 23.1234 16.0602 21.9547 17.9452 19.7303C19.7172 17.6316 20.6975 14.7412 20.6975 11.5618C20.6975 9.42531 20.245 7.40201 19.4156 5.68032Z" fill="#0074F0"/>
</svg>
